<svg xmlns="http://www.w3.org/2000/svg" width="700" height="450" fill="none" viewBox="0 0 635 400">
  <g clip-path="url(#a)">
    <path fill="#32AABA" d="M376.45 12.271c45.671-24.434 103.637-11.624 134.37 31.7l-1.046.743c-30.353-42.79-87.61-55.438-132.72-31.311a103.49 103.49 0 0 0-11.076 6.855c-46.388 32.897-57.361 97.396-24.459 143.778l-1.046.742c-33.311-46.959-22.202-112.26 24.762-145.566a104.993 104.993 0 0 1 11.215-6.94Z"/>
    <path fill="#E6E6E6" d="m618.399 116.711-150.218-11.685a8.83 8.83 0 0 1-8.112-9.479l6.512-72.977a8.833 8.833 0 0 1 9.481-8.11L626.28 26.145a8.833 8.833 0 0 1 8.112 9.479l-6.513 72.976a8.832 8.832 0 0 1-9.48 8.111Z"/>
    <path fill="#fff" d="M582.916 100.225c-1.141 0-2.285-.045-3.433-.134l-97.081-7.552A14.824 14.824 0 0 1 468.77 76.61l2.214-28.453a14.839 14.839 0 0 1 15.932-13.63l125.537 9.765a14.839 14.839 0 0 1 13.631 15.93 43.376 43.376 0 0 1-43.168 40.004v-.001Z"/>
    <path fill="#E6E6E6" d="M609.449 66.911 486.385 57.34a1.958 1.958 0 1 1 .303-3.905l123.065 9.573a1.956 1.956 0 0 1 1.8 2.104 1.956 1.956 0 0 1-2.104 1.8Zm-51.1 3.786-72.565-5.645a1.958 1.958 0 0 1 .304-3.904l72.565 5.645a1.954 1.954 0 0 1 1.711 1.345 1.953 1.953 0 0 1-.589 2.095 1.951 1.951 0 0 1-1.426.464Zm15.985 9.003-89.15-6.934a1.964 1.964 0 0 1-1.337-.679 1.967 1.967 0 0 1-.465-1.425 1.97 1.97 0 0 1 .68-1.336 1.962 1.962 0 0 1 1.426-.464l89.15 6.934a1.96 1.96 0 0 1 1.8 2.104 1.963 1.963 0 0 1-2.104 1.8Zm34.013 136.076-150.218-11.685a8.832 8.832 0 0 1-8.112-9.479l6.512-72.977a8.831 8.831 0 0 1 9.481-8.111l150.218 11.685a8.834 8.834 0 0 1 8.112 9.479l-6.513 72.977a8.828 8.828 0 0 1-9.48 8.111Z"/>
    <path fill="#fff" d="M572.825 199.288c-1.124 0-2.256-.044-3.394-.133l-97.081-7.551a14.83 14.83 0 0 1-12.947-10.186 14.827 14.827 0 0 1-.685-5.743l2.214-28.453a14.824 14.824 0 0 1 15.932-13.63l125.537 9.765a14.835 14.835 0 0 1 10.115 5.142 14.812 14.812 0 0 1 3.516 10.787 43.43 43.43 0 0 1-43.207 40.002Z"/>
    <path fill="#E6E6E6" d="m599.397 165.976-123.064-9.573a1.949 1.949 0 0 1-1.337-.679 1.953 1.953 0 0 1 .215-2.761 1.97 1.97 0 0 1 1.425-.464l123.065 9.573a1.966 1.966 0 0 1 1.336.679 1.966 1.966 0 0 1 .464 1.425 1.966 1.966 0 0 1-.679 1.336 1.955 1.955 0 0 1-1.425.464Zm-51.1 3.786-72.565-5.645a1.976 1.976 0 0 1-.736-.206 1.972 1.972 0 0 1-.975-1.139 1.955 1.955 0 0 1 .117-1.495 1.952 1.952 0 0 1 1.898-1.064l72.565 5.644a1.96 1.96 0 0 1 1.8 2.104 1.964 1.964 0 0 1-.679 1.336 1.967 1.967 0 0 1-1.425.465Zm15.985 9.003-89.15-6.934a1.955 1.955 0 0 1-1.121-3.44 1.959 1.959 0 0 1 1.425-.465l89.15 6.935a1.958 1.958 0 1 1-.304 3.904Z"/>
    <path fill="#32AABA" d="M226.235 177.647a35.95 35.95 0 0 1-.629-27.517 35.969 35.969 0 0 1 19.014-19.902 35.963 35.963 0 0 1 27.521-.629 35.97 35.97 0 0 1 19.905 19.012l-1.174.518a34.673 34.673 0 0 0-19.195-18.334 34.674 34.674 0 0 0-26.539.606 34.69 34.69 0 0 0-18.336 19.193 34.664 34.664 0 0 0 .607 26.535l-1.174.518Z"/>
    <path fill="#F2F2F2" d="M599.043 378.201c14.685-6.958 25.624-20.957 23.917-36.341-13.174 10.667-31.111 16.623-49.628 16.481-7.212-.056-15.29-.789-20.53 3.257-3.262 2.518-4.733 6.516-4.918 10.5-.186 3.985.78 8.018 1.74 11.998l-.292.943c17.243 1.097 35.026.12 49.711-6.838Z"/>
    <path fill="#fff" d="M622.599 341.822c-5.68 11.081-15.527 20.317-27.765 25.723a29.383 29.383 0 0 1-8.469 2.487 19.138 19.138 0 0 1-8.809-1.151c-2.659-.954-5.281-2.197-8.102-2.575a10.365 10.365 0 0 0-7.836 2.113c-2.606 2.026-4.161 4.831-5.57 7.629-1.564 3.106-3.132 6.359-6.195 8.476-.371.256.146.79.517.534 5.329-3.683 6.098-10.344 10.332-14.805a9.964 9.964 0 0 1 8.011-3.348c2.879.212 5.583 1.492 8.269 2.478a20.539 20.539 0 0 0 8.592 1.41 27.556 27.556 0 0 0 8.572-2.179 59.147 59.147 0 0 0 16.218-10.091 55.285 55.285 0 0 0 12.962-16.451c.196-.383-.533-.631-.727-.25Z"/>
    <path fill="#fff" d="M598.933 365.983a11.498 11.498 0 0 0 12.929 3.286c.427-.18.078-.806-.35-.626a10.646 10.646 0 0 1-12.021-3.078c-.3-.365-.856.055-.558.418Zm-20.085 3.536a15.45 15.45 0 0 1 6.65-10.78c.37-.258-.147-.792-.516-.534a16.068 16.068 0 0 0-6.894 11.232c-.052.429.708.509.76.082Zm35.974-16.074a5.234 5.234 0 0 1-2.016-4.673c.059-.428-.701-.507-.759-.082a5.85 5.85 0 0 0 2.217 5.173.432.432 0 0 0 .537.058.298.298 0 0 0 .086-.104.307.307 0 0 0-.065-.372Z"/>
    <path fill="#F2F2F2" d="M574.509 309.332c-.046.266-.091.531-.142.799a58.047 58.047 0 0 1-2.867 10.445c-.095.263-.194.528-.297.788a62.946 62.946 0 0 1-14.44 21.793 66.156 66.156 0 0 1-8.258 6.906c-4.092 2.895-8.815 5.724-11.405 9.625-.274.402-.52.823-.736 1.26l11.668 23.603c.055.044.105.09.161.135l.419.958c.163-.098.328-.203.49-.301.095-.057.186-.118.281-.175.062-.039.124-.079.183-.111a.912.912 0 0 0 .056-.037c.059-.032.109-.068.162-.098.928-.584 1.852-1.175 2.772-1.773.006-.002.006-.002.009-.009 6.998-4.576 13.58-9.746 18.988-15.712.163-.179.331-.36.489-.551a58.96 58.96 0 0 0 6.431-8.65 50.614 50.614 0 0 0 2.733-5.177 41.807 41.807 0 0 0 3.638-14.55c.659-10.074-2.33-20.492-9.761-28.556-.19-.207-.378-.408-.574-.612Z"/>
    <path fill="#fff" d="M574.21 309.493c3.25 12.461 2.13 25.603-3.372 36.785a23.075 23.075 0 0 1-4.656 6.676 15.588 15.588 0 0 1-7.375 3.772c-2.637.624-5.441.983-7.809 2.183a8.242 8.242 0 0 0-4.437 6.016c-.579 3.124.156 6.341.995 9.474.932 3.478 1.961 7.082 1.101 10.529-.104.417.644.591.748.174 1.496-5.997-2.437-12.061-2.287-18.127.07-2.831 1.102-5.59 3.731-7.158 2.299-1.372 5.19-1.745 7.868-2.356a16.887 16.887 0 0 0 7.388-3.436 21.561 21.561 0 0 0 4.942-6.469 50.4 50.4 0 0 0 5.311-17.302 55.643 55.643 0 0 0-1.434-20.941c-.112-.431-.825-.248-.714.18Z"/>
    <path fill="#fff" d="M572.85 342.744c4.8 1.503 9.891-.295 11.904-4.182.198-.383-.487-.726-.686-.343-1.885 3.642-6.597 5.275-11.084 3.87-.472-.148-.604.508-.134.655Zm-12.644 13.826a16.417 16.417 0 0 1-2.319-12.728c.102-.418-.646-.592-.748-.175a17.073 17.073 0 0 0 2.443 13.243c.251.393.874.051.624-.34Zm16.051-33.026a6.463 6.463 0 0 1-4.673-2.877c-.245-.395-.868-.052-.624.34a7.23 7.23 0 0 0 5.162 3.192c.207.025.4-.048.442-.24a.377.377 0 0 0-.307-.415Z"/>
    <path fill="#FFB8B8" d="m599.277 210.611-8.926-47.511-17.522-23.06-12.985 8.489c1.834 9.951 15.714 28.527 15.714 28.527l12.303 36.744c-.05.191-.095.383-.128.582a6.852 6.852 0 1 0 11.544-3.771Z"/>
    <path fill="#3F3D56" d="m560.192 153.548 14.702-11.93.027-.063c2.75-6.23-3.355-16.913-8.961-24.777a12.571 12.571 0 0 0-16.816-3.399 12.585 12.585 0 0 0-5.855 11.935l1.236 11.902 15.667 16.332Z"/>
    <path fill="#FFB8B8" d="m508.234 389.988-9.782-.001-4.653-37.725 14.437.001-.002 37.725Z"/>
    <path fill="#2F2E41" d="M510.729 386.794h-2.753l-10.749-4.371-5.761 4.371h-.001a12.279 12.279 0 0 0-12.277 12.274v.399l31.541.001v-12.674Z"/>
    <path fill="#FFB8B8" d="m551.637 389.988-9.782-.001-4.653-37.725 14.437.001-.002 37.725Z"/>
    <path fill="#2F2E41" d="M554.133 386.794h-2.753l-10.75-4.371-5.761 4.371h-.001a12.275 12.275 0 0 0-12.276 12.274v.399l31.54.001.001-12.674Zm12.42-159.301s1.142 13.704-1.713 26.838c-2.856 13.134-2.856 50.122-2.856 50.122l-6.282 72.078-18.846-1.713-5.14-120.487-18.275 40.543 1.713 5.71-2.282 1.428s1.711 11.135.569 11.135c-1.142 0-3.998 1.713-3.998 1.713l2.284 58.816-19.417-.571-6.853-82.799 7.424-47.395.571-9.137 2.57.106 1.309-3.818 2.403-6.566 66.819 3.997Z"/>
    <path fill="#3F3D56" d="m567.54 230.371.102-.142c5.436-7.61-2.74-25.896-3.973-28.546l5.194-1.686-1.17-9.94-.554-4.432 3.97-3.969.011-.099 2.284-19.985 3.321-13.275a29.131 29.131 0 0 0-.309-15.242 29.132 29.132 0 0 0-7.963-13.001l-7.678-7.238-9.33-13.804h-15.047l-5.159 9.743a21.929 21.929 0 0 0-16.968 22.389l1.169 25.555-4.578 31.818-.002 5.758-5.152 5.724 1.125 5.624-3.92 1.679-1.731 8.077c-.717.946-5.445 7.25-5.445 8.973 0 .259.191.509.601.786 3.222 2.182 21.033 6.63 28.916 3.476 8.397-3.357 41.776 1.679 42.113 1.731l.173.026Z"/>
    <path fill="#CCC" d="M436.694 399.237a.76.76 0 0 0 .758.763h179.747a.763.763 0 1 0 0-1.526H437.457a.76.76 0 0 0-.763.758v.005Z"/>
    <path fill="#FFB8B8" d="M541.978 94.556c11.005 0 19.927-8.921 19.927-19.925 0-11.004-8.922-19.925-19.927-19.925-11.006 0-19.927 8.92-19.927 19.925 0 11.004 8.921 19.925 19.927 19.925Z"/>
    <path fill="#2F2E41" d="M540.069 94.878a54.189 54.189 0 0 0 9.199-.882c3.006-.692 9.637-5.819 11.444-8.848 1.343-2.25 2.149-5.731 2.589-8.255a24.236 24.236 0 0 0-4.732-19.115 7.663 7.663 0 0 0-3.159-2.557 3.832 3.832 0 0 0-.343-.106 9.443 9.443 0 0 1-4.771-2.784 7.845 7.845 0 0 0-.801-.783 11.633 11.633 0 0 0-4.915-2.311c-2.904-.697-7.058.176-12.347 2.6-2.657 1.217-5.605.877-7.878.445a.742.742 0 0 0-.691.257 5.222 5.222 0 0 1-3.512 1.506c-.807.056-1.625 1.196-2.612 2.681-.224.337-.485.731-.675.971l-.038-.45-.444.515a6.332 6.332 0 0 0-1.259 5.984 6.335 6.335 0 0 0 4.386 4.262c.818.196 1.654.307 2.495.332.51.033 1.037.066 1.544.141a9.555 9.555 0 0 1 7.258 6.015 2.492 2.492 0 0 0 1.626 1.493 2.5 2.5 0 0 0 2.175-.378 4.131 4.131 0 0 1 3.744-.782c.557.291.997.765 1.246 1.342.301.642.787 1.18 1.396 1.546 2.074 1.002 2.336 5.675 1.702 9.591-.612 3.776-1.943 6.53-3.237 6.698-.996.13-1.109.203-1.176.382l-.061.16.116.144c.557.186 1.147.25 1.731.186Z"/>
    <path fill="#7B7B7B" d="M321.069 197.579c21.884 0 39.624-17.738 39.624-39.618 0-21.881-17.74-39.619-39.624-39.619-21.883 0-39.624 17.738-39.624 39.619 0 21.88 17.741 39.618 39.624 39.618Z"/>
    <path fill="#FFB8B8" d="m535.479 152.065-13.07-8.358c-8.323 5.756-19.571 26.034-19.571 26.034l-28.468 26.297a6.848 6.848 0 1 0 2.333 13.497 6.846 6.846 0 0 0 5.259-4.396l39.674-27.635 13.843-25.439Z"/>
    <path fill="#3F3D56" d="m534.233 155.456 8.705-20.89-3.149-11.544a12.59 12.59 0 0 0-9.773-9.013 12.564 12.564 0 0 0-14.452 9.245c-2.384 9.359-4.215 21.526.6 26.341l.049.049 18.02 5.812Z"/>
    <path fill="#F2F2F2" d="M27.291 387.913C10.251 379.168-2.11 362.268.473 344.208c15.122 13.058 36.03 20.745 57.849 21.268 8.498.204 18.04-.358 24.063 4.604 3.748 3.088 5.331 7.853 5.401 12.553.07 4.701-1.218 9.416-2.499 14.069l.31 1.122c-20.354.649-41.266-1.166-58.306-9.911Z"/>
    <path fill="#fff" d="M.9 344.177c6.278 13.266 17.533 24.514 31.748 31.339a34.607 34.607 0 0 0 9.883 3.247c3.506.479 7.075.127 10.42-1.027 3.17-1.025 6.304-2.391 9.641-2.731a12.212 12.212 0 0 1 9.152 2.781c2.995 2.485 4.722 5.847 6.277 9.195 1.727 3.718 3.452 7.609 6.98 10.217.429.316-.2.925-.627.61-6.14-4.538-6.798-12.413-11.62-17.827-2.25-2.526-5.424-4.406-9.311-4.243-3.4.143-6.633 1.549-9.834 2.611a24.214 24.214 0 0 1-10.175 1.339 32.495 32.495 0 0 1-10.016-2.887 69.718 69.718 0 0 1-18.729-12.492A65.17 65.17 0 0 1 .035 344.444c-.217-.458.65-.722.866-.267Z"/>
    <path fill="#fff" d="M27.877 373.523c-3.736 4.26-10.31 5.701-15.353 3.388-.497-.227-.062-.952.435-.724a12.55 12.55 0 0 0 14.276-3.177c.368-.419 1.007.097.642.513Zm23.529 4.916a18.223 18.223 0 0 0-7.432-12.948c-.426-.317.203-.927.629-.61a18.954 18.954 0 0 1 7.7 13.49c.046.507-.851.573-.897.068Zm-41.778-20.28a6.162 6.162 0 0 0 2.549-5.429c-.053-.506.845-.571.898-.068a6.899 6.899 0 0 1-2.806 6.011.51.51 0 0 1-.634.048.37.37 0 0 1-.102-.435.375.375 0 0 1 .095-.127Z"/>
    <path fill="#F2F2F2" d="M58.766 307.699c.043.314.086.629.136.947a68.446 68.446 0 0 0 2.989 12.411c.1.313.208.629.32.939a74.195 74.195 0 0 0 16.196 26.212 78.01 78.01 0 0 0 9.47 8.444c4.713 3.563 10.171 7.072 13.076 11.764.309.484.582.99.82 1.512l-14.626 27.37c-.067.05-.128.102-.196.153l-.529 1.112c-.187-.121-.379-.251-.566-.372-.109-.07-.215-.146-.324-.217-.072-.048-.143-.097-.211-.137a1.472 1.472 0 0 1-.065-.046c-.068-.04-.126-.084-.188-.122a263.866 263.866 0 0 1-3.199-2.192c-.006-.003-.006-.003-.01-.011-8.073-5.652-15.634-11.988-21.781-19.218-.185-.217-.377-.437-.556-.667a69.43 69.43 0 0 1-7.253-10.43 59.686 59.686 0 0 1-3.026-6.202 49.254 49.254 0 0 1-3.742-17.275c-.4-11.893 3.51-24.053 12.565-33.276.232-.236.46-.466.7-.699Z"/>
    <path fill="#fff" d="M59.111 307.899c-4.294 14.558-3.465 30.082 2.599 43.461a27.208 27.208 0 0 0 5.235 8.037 18.367 18.367 0 0 0 8.547 4.719c3.084.834 6.374 1.362 9.118 2.864a9.713 9.713 0 0 1 5.002 7.253c.566 3.702-.42 7.464-1.526 11.123-1.227 4.062-2.574 8.27-1.69 12.362.108.496-.78.673-.887.178-1.539-7.121 3.321-14.117 3.37-21.269.024-3.338-1.088-6.626-4.127-8.572-2.657-1.702-6.049-2.249-9.181-3.069a19.9 19.9 0 0 1-8.575-4.324 25.413 25.413 0 0 1-5.58-7.805 59.415 59.415 0 0 1-5.61-20.58 65.597 65.597 0 0 1 2.471-24.616c.148-.503.981-.261.834.238Z"/>
    <path fill="#fff" d="M59.472 347.121c-5.71 1.592-11.642-.717-13.867-5.371-.22-.459.6-.837.82-.378 2.085 4.36 7.575 6.46 12.913 4.972.562-.157.692.621.134.777Zm14.378 16.76a19.344 19.344 0 0 0 3.208-14.908c-.105-.496.783-.673.888-.178a20.136 20.136 0 0 1-3.373 15.51c-.311.453-1.032.027-.723-.424Zm-17.675-39.506a7.606 7.606 0 0 0 5.612-3.214c.305-.456 1.025-.029.722.424a8.525 8.525 0 0 1-6.2 3.567c-.244.022-.468-.071-.51-.299a.444.444 0 0 1 .376-.478Z"/>
    <path fill="#FFB6B6" d="m110.315 170.524 1.284 11.904-.756 15.609 34.579-4.107 3.25-23.406-4.141.041-34.216-.041ZM92.38 386.643h7.56l3.598-29.156H92.38v29.156Z"/>
    <path fill="#2F2E41" d="m89.913 381.466 12.078-.721v5.174l11.483 7.93a3.232 3.232 0 0 1-1.837 5.891h-14.38l-2.478-5.118-.968 5.118H88.39l1.523-18.274Z"/>
    <path fill="#FFB6B6" d="M134.846 386.643h7.56l3.597-29.156h-11.157v29.156Z"/>
    <path fill="#2F2E41" d="m132.378 381.466 12.078-.721v5.174l11.483 7.93a3.227 3.227 0 0 1 1.25 3.621 3.234 3.234 0 0 1-3.087 2.27h-14.379l-2.478-5.118-.968 5.118h-5.422l1.523-18.274ZM89.118 361.5h.082l1.454-47.407a12.397 12.397 0 0 1 .163-11.715l.208-.376-.54-2.502a15.934 15.934 0 0 1 .911-9.59l1.356-44.222C87.907 214.287 111 193.809 111 193.809h34.595l7.427 25.514c4.91 47.83 4.019 94.439-3.773 139.595l.213.107c.765.264 1.093 1.324.733 2.367s-1.272 1.674-2.037 1.41l-18.27-.635c-.765-.264-1.093-1.324-.733-2.367.36-1.042 1.272-1.674 2.037-1.41l1.242.628-2.649-45.746.294-8.356-.606-9.479-2.8-42.639-10.6 52.434-10.828 56.796a1.992 1.992 0 0 1-1.343 3.467H89.118a2.001 2.001 0 0 1-1.85-1.232 2 2 0 0 1 1.084-2.612c.243-.1.503-.151.766-.151Z"/>
    <path fill="#FFB6B6" d="M116.353 109.611c10.248 0 18.556-8.307 18.556-18.553 0-10.247-8.308-18.554-18.556-18.554-10.248 0-18.555 8.307-18.555 18.553 0 10.247 8.307 18.554 18.555 18.554Z"/>
    <path fill="#2F2E41" d="M35.044 176.772a60.413 60.413 0 0 1 10.601-16.536 40.815 40.815 0 0 0-6.199 19.794 31.266 31.266 0 0 0 4.234 2.214 40.575 40.575 0 0 0 13.873 3.116 60.53 60.53 0 0 1 12.997-23.105 40.916 40.916 0 0 0-6.233 23.004 64.045 64.045 0 0 0 15.61-3.345c7.572-2.604 14.922-6.494 20.159-12.545 5.668-6.548 8.461-15.19 9.363-23.805.902-8.608.054-17.296-.801-25.911-.404-4.106 3.016-8.83 2.612-12.936h-.269c-1.798-2.463-3.628-4.987-4.51-7.908-.875-2.914-.646-6.353 1.366-8.648a9.402 9.402 0 0 1 4.126-2.558c.149-.188.31-.37.478-.551a38.372 38.372 0 0 1 10.602-7.929c-2.861 2.16-4.773 4.604-5.661 7.128 2.477-.546 4.954-1.089 7.431-1.63a35.69 35.69 0 0 1 2.612-2.503c1.326-1.15 1.763-1.238 3.345-2.322a10.678 10.678 0 0 0-2.888 4.12c3.184-.802 6.368-2.006 8.024-4.746 2.746-4.53-.518-10.64-5.075-13.346a18.163 18.163 0 0 0-21.089 2.322c-6.59-4.852-15.973-4.772-23.303-1.144a34.072 34.072 0 0 0-12.156 10.573 47.532 47.532 0 0 1 5.506-.383 16.887 16.887 0 0 0-7.21 2.853 49.667 49.667 0 0 0-2.61 4.57 62.126 62.126 0 0 0-1.468 3.13c-2.82 6.42-4.658 13.258-6.563 20.015-2.221 7.875-4.604 15.803-8.764 22.85a51.33 51.33 0 0 1-28.304 22.58c-.99 8.904 3.359 17.613 10.164 23.582Z"/>
    <path fill="#7B7B7B" d="m135.039 122.018-3.601-1.352-4.541-7.342-16.177 1.321-3.931 7.873-9.472 7.232 4.142 21.813 6.435 26.495 43.079-5.384-.045-19.946s7.784-15.758-4.79-21.662l-11.099-9.048Z"/>
    <path fill="#FFB6B6" d="M201.441 191.203a6.165 6.165 0 0 1-8.331-4.464l-48.033-29.061 8.78-10.128 44.454 31.751a6.198 6.198 0 0 1 3.13 11.902Z"/>
    <path fill="#7B7B7B" d="M129.072 143.898s-2.295 2.309 3.464 6.106c4.612 3.04 25.179 18.063 32.47 20.439a4.847 4.847 0 0 0 3.228 4.982l6.601-14.505c-1.429-3.316-3.714-2.548-4.917-1.796l-7.973-5.996-19.578-19.547-11.665 8.618-1.63 1.699Z"/>
    <path fill="#FD6584" d="M109.87 68.651a25.837 25.837 0 0 0-3.109 22.707"/>
    <path fill="#CCC" d="M15.731 399.237a.758.758 0 0 0 .763.763h179.743a.762.762 0 1 0 0-1.526H16.494a.77.77 0 0 0-.54.223.76.76 0 0 0-.223.54Z"/>
    <path fill="#E6E6E6" d="M84.213 225.811a1.793 1.793 0 0 0-1.097 2.283l25.042 72.166a1.796 1.796 0 0 0 2.283 1.098l145.71-51.118a1.791 1.791 0 0 0 1.097-2.283l-25.041-72.167a1.791 1.791 0 0 0-2.284-1.097l-145.71 51.118Z"/>
    <path fill="#fff" d="M121.094 290.942a13.888 13.888 0 0 1-13.079-9.24l-13.752-38.905a13.853 13.853 0 0 1 8.448-17.683l73.643-26.025a55.193 55.193 0 0 1 70.347 33.601 13.862 13.862 0 0 1-8.448 17.683l-.107-.303.107.303-112.554 39.776a13.81 13.81 0 0 1-4.605.793Z"/>
    <path fill="#E6E6E6" d="m218.754 214.252-65.941 23.133c-.929.325-2.081-.545-2.572-1.946-.491-1.4-.137-2.799.793-3.125l65.941-23.133c.929-.326 2.08.545 2.571 1.945.492 1.4.137 2.801-.792 3.126Zm5.1 14.535-65.941 23.133c-.929.326-2.08-.545-2.572-1.945-.491-1.4-.136-2.8.793-3.126l65.941-23.133c.929-.326 2.08.545 2.572 1.946.491 1.4.136 2.799-.793 3.125Z"/>
    <path fill="#E4E4E4" d="M143.89 245.293a17.69 17.69 0 0 1 .73 9.104 17.769 17.769 0 0 1-29.768 9.638 17.762 17.762 0 1 1 29.038-18.742Z"/>
    <path fill="#FD6584" d="M127.882 253.924a3.396 3.396 0 1 0 0-6.792 3.396 3.396 0 0 0 0 6.792Z"/>
    <path fill="#3F3D56" d="M114.852 264.035c.872-2.022 1.902-5.109 4.289-3.985 1.179.511 3.291 2.064 4.148.258l6.714-14.053a2.181 2.181 0 0 1 2.134-1.224c.291.022.574.102.833.235l11.936 6.245c-.014.968-.11 1.934-.286 2.886l-29.068 10.273-.7-.635Z"/>
    <path fill="#FFB6B6" d="M118.317 222.536a6.172 6.172 0 0 1-3.605-3.769 6.165 6.165 0 0 1 .575-5.183l-15.195-54.039 13.332-1.393 10.744 53.557a6.191 6.191 0 0 1 1.884 8.012 6.196 6.196 0 0 1-7.735 2.815Z"/>
    <path fill="#7B7B7B" d="M97.844 129.88s-3.254.117-1.646 6.825c1.288 5.371 6.017 39.06 9.715 45.777a4.839 4.839 0 0 0-1.05 5.842l14.735-6.076c1.223-3.397.276-6.481-1.116-6.754l-1.722-9.825-2.536-32.961-14.029-2.954-2.351.126Zm132.73 142.184-20.377.844a2.894 2.894 0 0 1-2.909-2.11 2.823 2.823 0 0 1-.053-1.263 55.474 55.474 0 0 0-1.331-25.618 2.87 2.87 0 0 1 1.416-3.351c8.347-4.336 16.167-4.556 23.243-.654.371.201.694.481.945.82.252.339.427.728.512 1.142a90.746 90.746 0 0 1 1.31 27.592 2.882 2.882 0 0 1-2.756 2.598Z"/>
    <path fill="#fff" d="m229.712 258.729-15.581.645a1.462 1.462 0 1 1-.121-2.922l15.581-.646a1.466 1.466 0 0 1 1.388.847 1.473 1.473 0 0 1 .046 1.118 1.461 1.461 0 0 1-1.313.958Zm-.212-5.125-15.581.645a1.46 1.46 0 0 1-1.522-1.401 1.463 1.463 0 0 1 1.401-1.522l15.581-.645a1.465 1.465 0 0 1 1.136 2.452 1.459 1.459 0 0 1-1.015.471Z"/>
    <path fill="#7B7B7B" d="m603.255 112.681-20.222-2.652a2.891 2.891 0 0 1-2.505-2.577 2.814 2.814 0 0 1 .164-1.253 55.496 55.496 0 0 0 3.069-25.468 2.864 2.864 0 0 1 1.968-3.06c8.965-2.845 16.708-1.725 23.013 3.329a2.903 2.903 0 0 1 1.1 2.182 90.8 90.8 0 0 1-3.428 27.41 2.883 2.883 0 0 1-3.159 2.089Z"/>
    <path fill="#fff" d="m604.685 99.395-15.461-2.028a1.463 1.463 0 1 1 .38-2.9l15.462 2.027a1.464 1.464 0 0 1 .701 2.61 1.459 1.459 0 0 1-1.082.29Zm.668-5.086-15.462-2.028a1.467 1.467 0 0 1-.972-.559 1.467 1.467 0 0 1-.108-1.623 1.466 1.466 0 0 1 1.46-.719l15.462 2.028a1.467 1.467 0 0 1 .972.559 1.469 1.469 0 0 1 .107 1.623 1.466 1.466 0 0 1-.889.682c-.186.05-.38.062-.57.037Z"/>
    <path fill="#32AABA" d="M333.895 151.869h-6.734v-6.732a6.095 6.095 0 0 0-6.092-6.092 6.095 6.095 0 0 0-6.092 6.092v6.732h-6.733a6.093 6.093 0 0 0-4.308 10.399 6.093 6.093 0 0 0 4.308 1.784h6.733v6.732a6.095 6.095 0 0 0 6.092 6.092 6.095 6.095 0 0 0 6.092-6.092v-6.732h6.734a6.092 6.092 0 0 0 0-12.183Z"/>
    <path fill="#3F3D56" d="M551.95 27.273a6.42 6.42 0 1 0 0-12.839 6.42 6.42 0 1 0 0 12.839ZM157.567 210.731a6.42 6.42 0 1 0 0-12.839 6.42 6.42 0 1 0 0 12.839Z"/>
  </g>
  <defs>
    <clipPath id="a">
      <path fill="#fff" d="M0 0h634.419v400H0z"/>
    </clipPath>
  </defs>
</svg>